# xmcd CD database file
#
# Track frame offsets:
#	150
#	10864
#	21910
#	37873
#	57783
#	69745
#	87287
#	96438
#	108767
#	118805
#	130043
#	142480
#	157535
#	165333
#	176467
#	189498
#	202897
#	215283
#	228152
#	238702
#
# Disc length: 3307 seconds
#
# Revision: 5
# Processed by: cddbd v1.5.2PL0 Copyright (c) Steve Scherf et al.
# Submitted via: CDex 1.95
#
DISCID=000ce914
DTITLE=Various Artist - Great Country Hits Vol7 CD1
DYEAR=1999
DGENRE=Oldies
TTITLE0=Jimmy Dean - Angel In Apron
TTITLE1=Patsy Cline - Don't Ever Leave Me Again
TTITLE2=Razzy Bailey - Cut From A Different Store
TTITLE3=Lee Greenwood - God Bless The USA
TTITLE4=Bill Monroe - Can't You Hear Me Calling
TTITLE5=Ed Bruce - Memphis Roots
TTITLE6=Johnny Cash - Blue Train
TTITLE7=Lynn Anderson - Rose Garden
TTITLE8=Jimmy Dean - Bill Bailey
TTITLE9=Merle Haggard - Begging To You
TTITLE10=Patsy Cline - Finger Prints
TTITLE11=Ed Bruce and Lynn Anderson - You're The Best Break
TTITLE12=Bill Monroe - Footprints In The Snow
TTITLE13=Johnny Cash - Cry, Cry, Cry
TTITLE14=Merle Haggard - Big City
TTITLE15=Lee Greenwood - I'll Never Stop Loving You
TTITLE16=Jimmy Dean - Frilly Shirt
TTITLE17=Razzy Bailey - Don't Talk To The Baby
TTITLE18=Patsy Cline - Gotta Lot Of Rhythm
TTITLE19=Bill Monroe - I Saw The Light
EXTD=YEAR: 1999
EXTT0=
EXTT1=
EXTT2=
EXTT3=
EXTT4=
EXTT5=
EXTT6=
EXTT7=
EXTT8=
EXTT9=
EXTT10=
EXTT11=
EXTT12=
EXTT13=
EXTT14=
EXTT15=
EXTT16=
EXTT17=
EXTT18=
EXTT19=
PLAYORDER=
